<svg version="1.1" id="Layer_1" xmlns="http://www.w3.org/2000/svg" xmlns:xlink="http://www.w3.org/1999/xlink" x="0px" y="0px"
	 width="100%" viewBox="0 0 1080 1080" enable-background="new 0 0 1080 1080" xml:space="preserve">
<path fill="#FFFFFF" opacity="1.000000" stroke="none" 
	d="
M8.000000,1.000000 
	C365.604126,1.000000 723.208252,1.000000 1080.906250,1.000000 
	C1080.906250,361.000000 1080.906250,721.000000 1080.906250,1081.000000 
	C1005.889709,1081.000000 930.902771,1081.000000 855.377991,1080.671997 
	C821.109375,1046.688965 787.350098,1013.062622 753.654846,979.372070 
	C703.933472,929.657776 654.269897,879.885620 604.559387,830.160461 
	C550.012024,775.596924 495.434570,721.063477 440.879669,666.507446 
	C410.962585,636.589783 381.090973,606.626526 351.137817,576.745056 
	C344.709259,570.331848 338.017456,564.182556 331.446899,557.911682 
	C331.751617,557.363220 332.056305,556.814758 332.360992,556.266296 
	C518.484253,556.266296 704.607544,556.266296 890.730774,556.266296 
	C890.888306,555.836121 891.045837,555.406006 891.203308,554.975830 
	C889.980164,554.040466 888.823914,552.998108 887.524048,552.185425 
	C861.334778,535.810730 835.118042,519.479858 808.928528,503.105499 
	C738.195618,458.881195 667.462036,414.657959 596.749878,370.400452 
	C550.293335,341.324127 503.877899,312.182159 457.436310,283.082001 
	C407.326233,251.683167 357.217377,220.282349 307.089142,188.912491 
	C253.280472,155.239441 199.438461,121.619667 145.632812,87.941757 
	C109.447205,65.292542 73.279861,42.613972 37.147778,19.879492 
	C27.350780,13.715174 17.711611,7.300023 8.000000,1.000000 
z"/>
<path fill="#013594" opacity="1.000000" stroke="none" 
	d="
M7.502095,1.000000 
	C17.711611,7.300023 27.350780,13.715174 37.147778,19.879492 
	C73.279861,42.613972 109.447205,65.292542 145.632812,87.941757 
	C199.438461,121.619667 253.280472,155.239441 307.089142,188.912491 
	C357.217377,220.282349 407.326233,251.683167 457.436310,283.082001 
	C503.877899,312.182159 550.293335,341.324127 596.749878,370.400452 
	C667.462036,414.657959 738.195618,458.881195 808.928528,503.105499 
	C835.118042,519.479858 861.334778,535.810730 887.524048,552.185425 
	C888.823914,552.998108 889.980164,554.040466 891.203308,554.975830 
	C891.045837,555.406006 890.888306,555.836121 890.730774,556.266296 
	C704.607544,556.266296 518.484253,556.266296 332.360992,556.266296 
	C332.056305,556.814758 331.751617,557.363220 331.446899,557.911682 
	C338.017456,564.182556 344.709259,570.331848 351.137817,576.745056 
	C381.090973,606.626526 410.962585,636.589783 440.879669,666.507446 
	C495.434570,721.063477 550.012024,775.596924 604.559387,830.160461 
	C654.269897,879.885620 703.933472,929.657776 753.654846,979.372070 
	C787.350098,1013.062622 821.109375,1046.688965 854.920044,1080.671997 
	C570.406067,1081.000000 285.812134,1081.000000 1.109109,1081.000000 
	C1.109109,721.000000 1.109109,361.000000 1.109109,1.000000 
	C3.005188,1.000000 5.004689,1.000000 7.502095,1.000000 
M530.233704,367.264374 
	C529.520752,366.834717 528.801147,366.415680 528.095764,365.973938 
	C364.805359,263.706726 201.516266,161.437515 38.221729,59.176918 
	C36.730572,58.243103 35.167015,57.424908 33.476604,56.461136 
	C33.476604,388.533203 33.476604,720.080200 33.476604,1051.663818 
	C282.106354,1051.663818 530.337708,1051.663818 779.584351,1051.663818 
	C603.581665,875.694763 428.225128,700.371704 252.868607,525.048706 
	C253.081360,524.611877 253.294098,524.175110 253.506851,523.738342 
	C428.425415,523.738342 603.343994,523.738342 778.262512,523.738342 
	C778.329285,523.406982 778.395996,523.075623 778.462708,522.744202 
	C695.919861,471.054199 613.376953,419.364166 530.233704,367.264374 
z"/>
<path fill="#DD0C39" opacity="1.000000" stroke="none" 
	d="
M530.533875,367.469238 
	C613.376953,419.364166 695.919861,471.054199 778.462708,522.744202 
	C778.395996,523.075623 778.329285,523.406982 778.262512,523.738342 
	C603.343994,523.738342 428.425415,523.738342 253.506851,523.738342 
	C253.294098,524.175110 253.081360,524.611877 252.868607,525.048706 
	C428.225128,700.371704 603.581665,875.694763 779.584351,1051.663818 
	C530.337708,1051.663818 282.106354,1051.663818 33.476604,1051.663818 
	C33.476604,720.080200 33.476604,388.533203 33.476604,56.461136 
	C35.167015,57.424908 36.730572,58.243103 38.221729,59.176918 
	C201.516266,161.437515 364.805359,263.706726 528.095764,365.973938 
	C528.801147,366.415680 529.520752,366.834717 530.533875,367.469238 
M356.880463,867.276123 
	C357.049500,867.251892 357.218567,867.227722 357.387573,867.203552 
	C357.247040,867.144104 357.106506,867.084656 357.048798,866.323425 
	C344.104034,849.028015 331.159302,831.732605 317.924713,814.049927 
	C338.441772,805.323364 358.635498,796.734314 379.664734,787.789856 
	C358.471100,778.789307 338.387909,770.260315 317.861755,761.543152 
	C331.407440,743.545044 344.509033,726.137024 358.211548,707.930542 
	C335.368225,710.734253 313.817627,713.379272 291.609772,716.104980 
	C294.329773,693.812683 296.972412,672.154663 299.742767,649.449951 
	C281.434998,663.237061 263.982452,676.380066 246.129715,689.824463 
	C237.339188,669.148438 228.806320,649.078430 219.854660,628.023376 
	C210.846878,649.242615 202.346405,669.266846 193.626083,689.808960 
	C175.785034,676.385437 158.255554,663.196350 139.967636,649.436646 
	C142.768616,672.339539 145.420746,694.025330 148.117523,716.076233 
	C125.769478,713.332336 104.189827,710.682739 81.487885,707.895325 
	C95.245720,726.167053 108.412033,743.653137 121.898590,761.564575 
	C101.298317,770.314331 81.223038,778.841125 60.131451,787.799561 
	C81.205849,796.759827 101.318077,805.310974 121.891342,814.058105 
	C108.332817,832.063354 95.166077,849.548340 81.483727,867.718018 
	C104.200691,864.938110 125.903709,862.282288 148.123230,859.563232 
	C145.377930,882.011780 142.738068,903.598083 139.973572,926.203613 
	C158.401031,912.323364 175.885559,899.153320 193.617264,885.797119 
	C202.347610,906.333435 210.858551,926.353638 219.879211,947.572815 
	C228.972504,926.162109 237.463989,906.168396 246.121841,885.782959 
	C264.027496,899.258850 281.563751,912.456726 299.766449,926.156128 
	C296.987854,903.460999 294.348358,881.901978 291.609467,859.531372 
	C303.229706,860.953552 314.059631,862.357056 324.909424,863.584778 
	C335.621307,864.796875 346.353302,865.831299 356.880463,867.276123 
M247.201462,352.942352 
	C246.152283,350.138672 244.897598,347.392395 244.095184,344.519775 
	C242.222641,337.816040 240.567490,331.051544 238.582184,323.375671 
	C231.992340,332.140381 226.127838,339.940369 219.869003,348.264832 
	C213.543747,339.846527 207.619064,331.961304 201.137741,323.335236 
	C198.410873,333.860565 195.937744,343.406433 193.330170,353.471283 
	C184.375244,348.229675 175.940659,343.292633 166.520828,337.778900 
	C168.070160,348.727722 169.414597,358.228638 170.862793,368.462769 
	C160.664429,367.067047 150.870041,365.726624 140.034042,364.243652 
	C145.475769,373.481567 150.484314,381.984100 155.805801,391.017883 
	C145.707260,393.661499 136.195679,396.151489 125.786232,398.876495 
	C134.489563,405.465698 142.350174,411.416901 150.516708,417.599701 
	C147.220657,420.078705 144.242477,421.965118 141.704086,424.324677 
	C139.030151,426.810211 136.920456,426.628845 133.936523,424.683655 
	C107.135460,407.212097 87.007370,384.062836 73.884476,354.855377 
	C73.175735,353.277924 72.368103,351.744965 71.218018,349.398804 
	C71.566010,430.266571 138.958115,500.944122 226.789291,496.872101 
	C313.638123,492.845673 369.404327,419.004059 368.188171,349.831665 
	C366.959137,352.490631 365.998871,354.575073 365.032898,356.656921 
	C351.786194,385.205536 331.844788,407.914490 305.335144,424.825500 
	C303.954163,425.706390 301.372253,426.333557 300.215668,425.638153 
	C296.445496,423.371368 293.077209,420.436127 289.281891,417.550964 
	C297.575653,411.267792 305.420349,405.324829 313.990570,398.832214 
	C303.328949,396.051453 293.791443,393.563873 283.928223,390.991333 
	C289.266479,381.947876 294.277466,373.458862 299.696075,364.279297 
	C288.849182,365.751587 279.085327,367.076874 268.871674,368.463226 
	C270.367859,357.914459 271.732147,348.295624 273.233734,337.708649 
	C264.188171,343.056915 256.054077,347.866241 247.201462,352.942352 
z"/>
<path fill="#FFFEFE" opacity="1.000000" stroke="none" 
	d="
M357.076477,866.943604 
	C346.353302,865.831299 335.621307,864.796875 324.909424,863.584778 
	C314.059631,862.357056 303.229706,860.953552 291.609467,859.531372 
	C294.348358,881.901978 296.987854,903.460999 299.766449,926.156128 
	C281.563751,912.456726 264.027496,899.258850 246.121841,885.782959 
	C237.463989,906.168396 228.972504,926.162109 219.879211,947.572815 
	C210.858551,926.353638 202.347610,906.333435 193.617264,885.797119 
	C175.885559,899.153320 158.401031,912.323364 139.973572,926.203613 
	C142.738068,903.598083 145.377930,882.011780 148.123230,859.563232 
	C125.903709,862.282288 104.200691,864.938110 81.483727,867.718018 
	C95.166077,849.548340 108.332817,832.063354 121.891342,814.058105 
	C101.318077,805.310974 81.205849,796.759827 60.131451,787.799561 
	C81.223038,778.841125 101.298317,770.314331 121.898590,761.564575 
	C108.412033,743.653137 95.245720,726.167053 81.487885,707.895325 
	C104.189827,710.682739 125.769478,713.332336 148.117523,716.076233 
	C145.420746,694.025330 142.768616,672.339539 139.967636,649.436646 
	C158.255554,663.196350 175.785034,676.385437 193.626083,689.808960 
	C202.346405,669.266846 210.846878,649.242615 219.854660,628.023376 
	C228.806320,649.078430 237.339188,669.148438 246.129715,689.824463 
	C263.982452,676.380066 281.434998,663.237061 299.742767,649.449951 
	C296.972412,672.154663 294.329773,693.812683 291.609772,716.104980 
	C313.817627,713.379272 335.368225,710.734253 358.211548,707.930542 
	C344.509033,726.137024 331.407440,743.545044 317.861755,761.543152 
	C338.387909,770.260315 358.471100,778.789307 379.664734,787.789856 
	C358.635498,796.734314 338.441772,805.323364 317.924713,814.049927 
	C331.159302,831.732605 344.104034,849.028015 357.034302,866.652954 
	C357.019836,866.982483 357.076477,866.943604 357.076477,866.943604 
z"/>
<path fill="#FFFDFE" opacity="1.000000" stroke="none" 
	d="
M247.560730,352.808960 
	C256.054077,347.866241 264.188171,343.056915 273.233734,337.708649 
	C271.732147,348.295624 270.367859,357.914459 268.871674,368.463226 
	C279.085327,367.076874 288.849182,365.751587 299.696075,364.279297 
	C294.277466,373.458862 289.266479,381.947876 283.928223,390.991333 
	C293.791443,393.563873 303.328949,396.051453 313.990570,398.832214 
	C305.420349,405.324829 297.575653,411.267792 289.281891,417.550964 
	C293.077209,420.436127 296.445496,423.371368 300.215668,425.638153 
	C301.372253,426.333557 303.954163,425.706390 305.335144,424.825500 
	C331.844788,407.914490 351.786194,385.205536 365.032898,356.656921 
	C365.998871,354.575073 366.959137,352.490631 368.188171,349.831665 
	C369.404327,419.004059 313.638123,492.845673 226.789291,496.872101 
	C138.958115,500.944122 71.566010,430.266571 71.218018,349.398804 
	C72.368103,351.744965 73.175735,353.277924 73.884476,354.855377 
	C87.007370,384.062836 107.135460,407.212097 133.936523,424.683655 
	C136.920456,426.628845 139.030151,426.810211 141.704086,424.324677 
	C144.242477,421.965118 147.220657,420.078705 150.516708,417.599701 
	C142.350174,411.416901 134.489563,405.465698 125.786232,398.876495 
	C136.195679,396.151489 145.707260,393.661499 155.805801,391.017883 
	C150.484314,381.984100 145.475769,373.481567 140.034042,364.243652 
	C150.870041,365.726624 160.664429,367.067047 170.862793,368.462769 
	C169.414597,358.228638 168.070160,348.727722 166.520828,337.778900 
	C175.940659,343.292633 184.375244,348.229675 193.330170,353.471283 
	C195.937744,343.406433 198.410873,333.860565 201.137741,323.335236 
	C207.619064,331.961304 213.543747,339.846527 219.869003,348.264832 
	C226.127838,339.940369 231.992340,332.140381 238.582184,323.375671 
	C240.567490,331.051544 242.222641,337.816040 244.095184,344.519775 
	C244.897598,347.392395 246.152283,350.138672 247.560730,352.808960 
z"/>
<path fill="#FFFEFE" opacity="1.000000" stroke="none" 
	d="
M356.992920,867.003845 
	C357.106506,867.084656 357.247040,867.144104 357.387573,867.203491 
	C357.218567,867.227722 357.049500,867.251892 356.978455,867.109863 
	C357.076477,866.943604 357.019836,866.982483 356.992920,867.003845 
z"/>
</svg>